<svg width="60" height="60" viewBox="0 0 60 60" fill="none" xmlns="http://www.w3.org/2000/svg">
<rect width="60" height="60" rx="8" fill="#13612E"/>
<path d="M14 18.4444C14 33.6629 26.337 46 41.5556 46C42.2421 46 42.9228 45.9749 43.597 45.9255C44.3705 45.8688 44.7572 45.8405 45.1093 45.6379C45.4009 45.47 45.6773 45.1724 45.8235 44.8693C46 44.5035 46 44.0766 46 43.2231V38.2146C46 37.4967 46 37.1378 45.8818 36.8302C45.7776 36.5584 45.608 36.3164 45.3883 36.1255C45.1396 35.9093 44.8021 35.7867 44.1276 35.5413L38.4267 33.4683C37.6418 33.1829 37.2492 33.0402 36.877 33.0644C36.5486 33.0857 36.2327 33.1979 35.9643 33.3881C35.6599 33.6037 35.4452 33.9618 35.0155 34.678L33.5556 37.1111C28.8446 34.9776 25.0256 31.1536 22.8889 26.4444L25.322 24.9846C26.0381 24.5549 26.3962 24.3401 26.6119 24.0357C26.8021 23.7673 26.9143 23.4513 26.9356 23.123C26.9598 22.7507 26.8171 22.3583 26.5317 21.5734L24.4586 15.8724C24.2133 15.1978 24.0907 14.8605 23.8745 14.6117C23.6836 14.392 23.4416 14.2225 23.1698 14.1181C22.8622 14 22.5033 14 21.7855 14H16.7769C15.9233 14 15.4966 14 15.1306 14.1764C14.8276 14.3226 14.53 14.5991 14.3621 14.8907C14.1594 15.2428 14.1311 15.6295 14.0745 16.4031C14.0251 17.0771 14 17.7578 14 18.4444Z" stroke="#F1F1F1" stroke-width="2" stroke-linecap="round" stroke-linejoin="round"/>
</svg>
