<svg width="60" height="60" viewBox="0 0 60 60" fill="none" xmlns="http://www.w3.org/2000/svg">
<rect width="60" height="60" rx="8" fill="#13612E"/>
<path d="M49 30.5C49 40.7172 40.7172 49 30.5 49C20.2827 49 12 40.7172 12 30.5C12 20.2827 20.2827 12 30.5 12C40.7172 12 49 20.2827 49 30.5ZM15.3751 30.5C15.3751 38.8533 22.1468 45.6249 30.5 45.6249C38.8533 45.6249 45.6249 38.8533 45.6249 30.5C45.6249 22.1468 38.8533 15.3751 30.5 15.3751C22.1468 15.3751 15.3751 22.1468 15.3751 30.5Z" fill="#F1F1F1"/>
<path d="M30.4982 18.7266C29.5694 18.7266 28.8164 19.4795 28.8164 20.4084V31.2842C28.8164 31.2842 28.8164 31.7226 29.0295 32.0524C29.1721 32.3321 29.3944 32.5752 29.6866 32.7438L37.4562 37.2298C38.2607 37.6941 39.2893 37.4185 39.7536 36.614C40.218 35.8096 39.9425 34.781 39.1381 34.3167L32.18 30.2995V20.4084C32.18 19.4795 31.4271 18.7266 30.4982 18.7266Z" fill="#F1F1F1"/>
</svg>
