<svg width="24" height="24" viewBox="0 0 24 24" fill="none" xmlns="http://www.w3.org/2000/svg">
<path d="M10.5506 18.1987L15.7256 11.9987H11.7256L12.4506 6.32372L7.82562 12.9987H11.3006L10.5506 18.1987ZM9.00062 14.9987H5.90062C5.50062 14.9987 5.20462 14.8197 5.01262 14.4617C4.82062 14.1037 4.84162 13.7577 5.07562 13.4237L12.5506 2.67372C12.7173 2.44039 12.9339 2.27805 13.2006 2.18672C13.4673 2.09539 13.7423 2.09939 14.0256 2.19872C14.3089 2.29805 14.5173 2.47305 14.6506 2.72372C14.7839 2.97439 14.8339 3.24105 14.8006 3.52372L14.0006 9.99872H17.8756C18.3089 9.99872 18.6133 10.1904 18.7886 10.5737C18.9639 10.9571 18.9096 11.3154 18.6256 11.6487L10.4006 21.4987C10.2173 21.7154 9.99228 21.8571 9.72562 21.9237C9.45895 21.9904 9.20061 21.9654 8.95061 21.8487C8.70061 21.7321 8.50495 21.5531 8.36362 21.3117C8.22228 21.0704 8.16795 20.8077 8.20062 20.5237L9.00062 14.9987Z" fill="#13612E"/>
</svg>
